<svg id="Layer_1" data-name="Layer 1" xmlns="http://www.w3.org/2000/svg" viewBox="0 0 178.74 38.29"><defs><style>.cls-1{fill:#f29f05;}</style></defs><path class="cls-1" d="M8.75,15.67l.43,1.12a1.45,1.45,0,0,1-.65.23,10.56,10.56,0,0,1-1.32.17,13,13,0,0,1-1.86,1.75,7.22,7.22,0,0,1-1.84,1L3,20.12A1.07,1.07,0,0,1,2.65,20a2.4,2.4,0,0,1-.45-.23,2,2,0,0,1-.39-.35.56.56,0,0,1-.14-.36A1,1,0,0,1,2,18.4a2.9,2.9,0,0,1,.9-.65c.79-.42,1.58-.85,2.35-1.28a.33.33,0,0,1,.24.08.28.28,0,0,1,.08.2.65.65,0,0,1-.41.55c-.27.16-.41.26-.41.33s.09.12.13.12.29-.16.61-.48.47-.51.46-.59l0-.28,0,0a3.64,3.64,0,0,0,.41-.5.88.88,0,0,0,.13-.36,2,2,0,0,0-.27-.82,9.3,9.3,0,0,0-.79-1.23,12.75,12.75,0,0,0-.81-1c-.27-.29-.53-.56-.78-.78l-.25-.29a1.64,1.64,0,0,1-.17-.26l-.19-.41a.49.49,0,0,0-.12-.2,1.5,1.5,0,0,0-.14-.18l-.22-.24a1.82,1.82,0,0,1-.34-.74,4.45,4.45,0,0,1-.13-1.19,3.74,3.74,0,0,1,.11-.89,3.05,3.05,0,0,1,.33-.78,1.62,1.62,0,0,0,.06-.17c0-.07,0-.14.08-.22a5.07,5.07,0,0,1,.82-1.24A12.12,12.12,0,0,1,5.16,3.43l.31-.19c.12-.09.26-.19.41-.32a1.24,1.24,0,0,1,.28-.22,1.51,1.51,0,0,1,.36-.18l.65-.3a8.69,8.69,0,0,1,.88-.46,1.54,1.54,0,0,1,.53-.15.6.6,0,0,1,.53.25,1.17,1.17,0,0,1,.18.7,4.54,4.54,0,0,1-.07.84A.82.82,0,0,1,9,3.83c-.84.77-1.51,1.35-2,1.73a2.37,2.37,0,0,1-1.07.58A.26.26,0,0,1,5.71,6a.4.4,0,0,1-.09-.29c0-.22.16-.46.48-.73s.47-.46.47-.6l-.1-.07-.12,0a.71.71,0,0,0-.14.1A9.31,9.31,0,0,0,4.8,6a2.19,2.19,0,0,0-.47,1.2,3,3,0,0,0,.12.82,4.94,4.94,0,0,0,.35.85c.12.21.28.46.5.78s.49.69.82,1.13l1.06,1.41a4.73,4.73,0,0,0,.42.53,5.06,5.06,0,0,1,.36.63,2.71,2.71,0,0,1,.2.61,4,4,0,0,1,.07.58c0,.22,0,.5,0,.83s0,.3.08.33a.65.65,0,0,0,.24,0,.13.13,0,0,0,.1,0Z" transform="translate(-1.67 -1.61)"/><path class="cls-1" d="M9.08,15.14l1-.73.13-.16a3.2,3.2,0,0,0,.17-.3.77.77,0,0,1,.19-.27,1.64,1.64,0,0,1,.29-.2,2.21,2.21,0,0,1,.24-.3c.11-.12.24-.27.4-.43l.3-.21a4.26,4.26,0,0,0,.39-.37,12,12,0,0,1,1.7-1.58,2.23,2.23,0,0,1,1.22-.52.55.55,0,0,1,.41.13.52.52,0,0,1,.13.38,1.25,1.25,0,0,1-.07.45.9.9,0,0,1-.25.33l-.58.49a5.52,5.52,0,0,1-.41.54,6.13,6.13,0,0,1-.57.57,2.79,2.79,0,0,0-.19.28l-.2.22a4.9,4.9,0,0,1-.39.37,3.11,3.11,0,0,1-.46.69c-.24.29-.56.63-.95,1a2.74,2.74,0,0,0-.27.39l-.5.8.08.11a1.61,1.61,0,0,0,.49-.29,5.64,5.64,0,0,0,.56-.55l.59-.62.32-.31L13,15l.17-.13a5,5,0,0,1,.91-1,1.35,1.35,0,0,1,.79-.33.37.37,0,0,1,.34.21,1.39,1.39,0,0,1,.14.6c0,.41,0,.8,0,1.17a1.18,1.18,0,0,0,.18.7.59.59,0,0,0,.52.32.27.27,0,0,0,.18-.07l.19-.15.14-.21.15-.2.12-.08.15-.15.25.64a4.12,4.12,0,0,1,.15.48c-.16.18-.32.35-.48.54s-.33.35-.5.51a2.61,2.61,0,0,1-.62.42,1.32,1.32,0,0,1-.59.15A1.26,1.26,0,0,1,14.08,18a2.33,2.33,0,0,1-.44-1.36.91.91,0,0,0,0-.23.64.64,0,0,0-.11-.24.71.71,0,0,1-.12.13,1.63,1.63,0,0,0-.14.18l-.35.3-.48.44q-.37.45-.63.72c-.17.19-.29.32-.36.41s-.31.27-.49.41-.4.28-.64.43a3.05,3.05,0,0,1-.38.21.62.62,0,0,1-.23.08.93.93,0,0,1-.76-.29,1.34,1.34,0,0,1-.24-.88,1.68,1.68,0,0,1,.12-.63,2.18,2.18,0,0,1,.37-.58c0-.1,0-.19,0-.26a.27.27,0,0,0,0-.12.71.71,0,0,0-.07-.16L9,16.14l-.17-.46.12-.19Z" transform="translate(-1.67 -1.61)"/><path class="cls-1" d="M16.91,15.68l.11-.19.17-.25a3.85,3.85,0,0,0,.27-.28c.12-.12.24-.26.38-.43s.29-.36.47-.6l.67-.87.43-.53.6-.78a2.11,2.11,0,0,1,.64-.6,1.44,1.44,0,0,1,.72-.19.62.62,0,0,1,.56.27,1.46,1.46,0,0,1,.18.8,6,6,0,0,1-.18,1.08c-.12.52-.3,1.22-.56,2.1l-.18.46a1.21,1.21,0,0,0-.08.28.82.82,0,0,0,0,.18.41.41,0,0,0,.08.19.94.94,0,0,0,.1-.1l.11-.15a1.61,1.61,0,0,1,.26-.38q.18-.21.42-.45a2.25,2.25,0,0,1,.25-.41,2.44,2.44,0,0,1,.35-.37l.11-.16a2.44,2.44,0,0,1,.16-.23,2.57,2.57,0,0,1,.33-.33c.13-.11.28-.23.45-.35a3.22,3.22,0,0,1,.51-.27.95.95,0,0,1,1,.08,1.51,1.51,0,0,1,.44.58l.4,1.4a2,2,0,0,0,.26.56.44.44,0,0,0,.33.19.45.45,0,0,0,.25-.07.67.67,0,0,0,.2-.18l.43,1.12-.37.36-.38.35a1.68,1.68,0,0,1-.45.36,1,1,0,0,1-.43.11.87.87,0,0,1-.46-.13,1.11,1.11,0,0,1-.39-.36,3.53,3.53,0,0,1-.21-.36l-.3-.66a3.84,3.84,0,0,1-.31-.42l-.41-.61-.09,0a1.44,1.44,0,0,0-.4.22,3.43,3.43,0,0,0-.42.38,4.41,4.41,0,0,1-.69.61.66.66,0,0,0-.29.28,5.54,5.54,0,0,1-.51.76c-.24.31-.54.67-.9,1.1l-.27.31-.28.3a.75.75,0,0,1-.31.18,1.23,1.23,0,0,1-.39.06c-.28,0-.44-.11-.46-.34s-.05-.45-.07-.67.23-.77.36-1.29.29-1.11.47-1.79a.55.55,0,0,1,0-.16,1.86,1.86,0,0,0,.09-.28,2.46,2.46,0,0,0,.08-.27,1.83,1.83,0,0,0,0-.21.16.16,0,0,0-.06-.13.25.25,0,0,0-.17-.05.51.51,0,0,0-.28.15,4.24,4.24,0,0,0-.42.46l-.48.58a1.66,1.66,0,0,1-.24.24l-.25.24-.32.36s0,.08-.07.14a.62.62,0,0,1-.14.22,2.45,2.45,0,0,0-.14-.45C17.12,16.17,17,16,16.91,15.68Z" transform="translate(-1.67 -1.61)"/><path class="cls-1" d="M43.08,15.67c.15.4.29.77.4,1.12a2.17,2.17,0,0,1-.56.45,5.29,5.29,0,0,1-.82.36l-.3.1-.4.12-.74.07-1,.14a13,13,0,0,1-1.47,1.17,3.91,3.91,0,0,1-1.08.55l-.16.16a3.92,3.92,0,0,1-.88.3,12.18,12.18,0,0,1-1.21.2.51.51,0,0,1-.26-.18,2.42,2.42,0,0,1-.3-.39l.26-.35c.11-.15.22-.31.35-.51a1.49,1.49,0,0,1,.38-.44,1.25,1.25,0,0,1,.55-.23,6.31,6.31,0,0,0,.78-.25l.26-.2.35-.25a3,3,0,0,0,.51-.38c.17-.16.37-.36.58-.6l.68-.76.31-.36a1.57,1.57,0,0,1,.18-.31,1.38,1.38,0,0,1,.23-.26l.37-.74.53-1a1.94,1.94,0,0,0,.14-.18,3,3,0,0,1,.18-.25,1.94,1.94,0,0,0,.31-.86,8.93,8.93,0,0,0,.1-1.39,3.24,3.24,0,0,0-.25-1.17A6,6,0,0,0,40.32,8a7.53,7.53,0,0,0-.93-1,5.3,5.3,0,0,0-1-.73c-.26-.14-.5-.29-.72-.43l-.61-.38c-.1.4-.22,1-.37,1.68s-.33,1.59-.52,2.61-.37,2.09-.48,2.8A13.47,13.47,0,0,0,35.55,14c0,.2-.07.4-.1.61L35,17a9.46,9.46,0,0,1-.63,1.23c-.18.27-.32.41-.42.41s-.09,0-.14-.14a3.93,3.93,0,0,1-.13-.45l.13-.69a1.42,1.42,0,0,1-.06-.21l.12-1.61c0-.54.07-1.08.11-1.62s.09-1.16.16-1.69.15-1,.24-1.47l-.13-.62a4.67,4.67,0,0,0,.13-.58c0-.22.07-.48.1-.78s.06-.68.08-.91a2.49,2.49,0,0,1,.07-.48c0-.11.06-.24.09-.4s.07-.36.11-.59a1.93,1.93,0,0,1,.37-.52,2.7,2.7,0,0,0,.44-.58.92.92,0,0,0,.33-.1A.22.22,0,0,0,36.1,5c0-.06-.05-.1-.13-.15a1.16,1.16,0,0,0-.36-.09l-.27,0A1.35,1.35,0,0,1,35,4.65l-.87-.49a1.62,1.62,0,0,1-.42-.29.43.43,0,0,1-.15-.3,4.85,4.85,0,0,0,.11-.49c0-.16-.09-.3-.12-.41a.93.93,0,0,1,0-.24.29.29,0,0,1,0-.17.15.15,0,0,1,.13-.06l.52.11.21-.08.22-.09a2,2,0,0,1,.45,0,1.74,1.74,0,0,1,.31.09l.31.18.31.18.34-.07a.2.2,0,0,1,.11,0l.31.18a3,3,0,0,0,.42.14,3.07,3.07,0,0,1,.43.1,1.7,1.7,0,0,1,.29.12c.75.44,1.4.87,2,1.26a9.66,9.66,0,0,1,1.39,1.16A5.6,5.6,0,0,1,42.58,7.4,5.24,5.24,0,0,1,43,9.47a8.6,8.6,0,0,1-.88,3.62,19,19,0,0,1-2.62,4,2.58,2.58,0,0,1,.39-.16l.56-.21,1.39-.37a4.44,4.44,0,0,0,.75-.32A1.83,1.83,0,0,0,43.08,15.67Z" transform="translate(-1.67 -1.61)"/><path class="cls-1" d="M43,15.68l.07-.08,0-.13a7.64,7.64,0,0,1,1-1.17,7.91,7.91,0,0,0,1-1.18.68.68,0,0,1,.24-.28.51.51,0,0,1,.28-.09.89.89,0,0,1,.62.22,1,1,0,0,1,.34.64c0,.25.1.5.14.76s.08.51.11.77.11.41.18.74a2.2,2.2,0,0,0,.16.57.35.35,0,0,0,.16.18.67.67,0,0,0,.26.05,1,1,0,0,0,.4-.08,1.31,1.31,0,0,0,.41-.27l.33-.33.35-.32.42,1.12a4.73,4.73,0,0,1-.45.45c-.18.17-.41.36-.67.58a6.3,6.3,0,0,1-.74.54,1.12,1.12,0,0,1-.47.18,2.08,2.08,0,0,1-1.26-.26,3.57,3.57,0,0,1-.63-1.42,1.47,1.47,0,0,0-.13-.24L45,16.32a3.68,3.68,0,0,0-.22-.42c-.07-.1-.12-.15-.16-.15a.78.78,0,0,0-.46.27,5.94,5.94,0,0,0-.7.78c0-.1-.08-.23-.13-.37s-.11-.32-.17-.52a.5.5,0,0,0,0-.13A.39.39,0,0,0,43,15.68Zm4.44-9.63a.54.54,0,0,1,.39.12.49.49,0,0,1,.12.36c0,.22-.07.42-.1.57s-.14.53-.19.72-.09.32-.12.4a1.43,1.43,0,0,1-.26.47,1.54,1.54,0,0,1-.4.36,2.74,2.74,0,0,1-.41.28.42.42,0,0,1-.23.06l-.34,0-.33,0A.53.53,0,0,1,45.37,9a2,2,0,0,1-.08-.66,1.81,1.81,0,0,1,.38-.92c.26-.37.49-.56.69-.59s.26-.37.42-.58a1.06,1.06,0,0,1,.28-.15A1.48,1.48,0,0,1,47.45,6.05Z" transform="translate(-1.67 -1.61)"/><path class="cls-1" d="M49.09,15.68a2.79,2.79,0,0,1,.33-.52,4.13,4.13,0,0,1,.51-.54l.06-.48a3.89,3.89,0,0,0,0-.49c0-.11.06-.24.1-.4l.16-.5c.06-.18.15-.4.26-.67a8.86,8.86,0,0,1,.43-.9l.47-.62.49-.68a1.69,1.69,0,0,1,.25-.2l.28-.22a1.15,1.15,0,0,1,.28-.09,2,2,0,0,1,.35,0,1.27,1.27,0,0,1,.43.06.62.62,0,0,1,.27.21,1.38,1.38,0,0,1,.15.3c0,.13.09.28.13.47s.05.34.08.54c0-.05,0,0,0,.06s-.06.23-.11.43l-.1.39a4.42,4.42,0,0,1-.67,1.35,17.73,17.73,0,0,1-1.4,1.76,1.07,1.07,0,0,0-.13.21.87.87,0,0,0-.05.28,1.25,1.25,0,0,0,.08.45.57.57,0,0,0,.23.29.8.8,0,0,0,.27.15,2.94,2.94,0,0,0,.44.13,2.43,2.43,0,0,0,.75-.16A2.65,2.65,0,0,0,54,16l.17-.1a1.81,1.81,0,0,0,.23-.18c.09.24.18.45.25.64s.12.35.17.48a7.22,7.22,0,0,1-1.1,1,1.64,1.64,0,0,1-.91.34,1,1,0,0,1-.39.18,1.93,1.93,0,0,1-.51.06,1.68,1.68,0,0,1-.7-.14,1.28,1.28,0,0,1-.5-.39,1.18,1.18,0,0,1-.22-.36c-.07-.16-.14-.35-.22-.57a1.44,1.44,0,0,0-.18-.39.23.23,0,0,0-.19-.13.3.3,0,0,0-.19.09,1.73,1.73,0,0,0-.24.27,2.45,2.45,0,0,0-.14-.45C49.29,16.17,49.2,16,49.09,15.68Zm3.4-4c-.16,0-.37.24-.63.71a2.47,2.47,0,0,0-.39,1,.22.22,0,0,0,0,.1.17.17,0,0,0,.12,0,.23.23,0,0,0,.19-.14c.05-.09.09-.18.14-.26l.22-.26.22-.28a1.16,1.16,0,0,0,.19-.34.83.83,0,0,0,.07-.34.44.44,0,0,0,0-.18A.14.14,0,0,0,52.49,11.71Z" transform="translate(-1.67 -1.61)"/><path class="cls-1" d="M54.43,15.68a3.12,3.12,0,0,0,.18-.27,4.73,4.73,0,0,1,.27-.41,4.39,4.39,0,0,0,.32-.36c.12-.15.25-.34.4-.57s.12-.29.21-.46l.28-.59a2.66,2.66,0,0,1,.29-.75,8.57,8.57,0,0,1,.65-.95c.39-.49.8-1,1.22-1.58A2.51,2.51,0,0,1,59,8.91a1.44,1.44,0,0,1,.83-.27.5.5,0,0,1,.46.3,2.17,2.17,0,0,1,.15.91,1.73,1.73,0,0,1-.26.68,12,12,0,0,1-.79,1.18c-.22.31-.45.6-.69.9s-.48.6-.71.91l-.34.37-.37.45c0,.17-.09.36-.14.57a5.13,5.13,0,0,0,0,.83,2.63,2.63,0,0,0,.16.59c0,.06.11.18.23.38s.27.46.47.78a1.88,1.88,0,0,0,.18.24,2,2,0,0,0,.25.25,2.9,2.9,0,0,0,.61-.66c.31-.38.72-.93,1.23-1.64l.41,1.12c-.05.07-.15.2-.28.4s-.31.46-.51.79-.46.71-.69,1.1a.53.53,0,0,0,.1.28c.07.1.15.22.25.35a3.5,3.5,0,0,1,.47,1,7.51,7.51,0,0,1,.31,1.43,1.78,1.78,0,0,0,0,.2q0,.14,0,.3a4.67,4.67,0,0,1-1.5,2.81,3.81,3.81,0,0,1-2.6,1.4,2,2,0,0,1-.89-.16,1,1,0,0,1-.48-.5,3.33,3.33,0,0,1-.08-.62q0-.47,0-1.23a1.32,1.32,0,0,1,.06-.29,5.33,5.33,0,0,1,.19-.58,3,3,0,0,1,.21-.5l.28-.57.3-.5c.11-.17.2-.33.29-.49l.61-.76a1.88,1.88,0,0,0,.31-.44.76.76,0,0,0,.12-.36c-.25-.39-.49-.75-.73-1.1a6.79,6.79,0,0,1-.62-1.1,4.16,4.16,0,0,1-.31-1.12,1.28,1.28,0,0,0-.09-.24l-.47.55a3.91,3.91,0,0,0-.15-.45C54.64,16.17,54.54,16,54.43,15.68Zm3.48,5.13s-.14.11-.29.34-.36.57-.62,1l-.45.82c-.14.28-.3.55-.46.82a3.39,3.39,0,0,0-.25.63,3.63,3.63,0,0,0-.16.64.44.44,0,0,0,.12.34.48.48,0,0,0,.34.11,2.32,2.32,0,0,0,1.68-1,3.11,3.11,0,0,0,.86-2,2.15,2.15,0,0,0-.06-.46c0-.17-.1-.36-.17-.58a3,3,0,0,0-.27-.52A.33.33,0,0,0,57.91,20.81Z" transform="translate(-1.67 -1.61)"/><path class="cls-1" d="M60.27,15.68l.16-.22c0-.1.11-.2.18-.32l.82-.64a4.34,4.34,0,0,1,.46-.53c.2-.22.46-.48.76-.79a2.18,2.18,0,0,1,.18-.31,1.86,1.86,0,0,1,.29-.35l.3-.3.27-.27.3-.37.3-.35a1.22,1.22,0,0,1,.35-.27.76.76,0,0,1,.39-.1.72.72,0,0,1,.36.07.22.22,0,0,1,.13.19c-.07.18-.15.37-.22.56l.06.11.73-.31a1.83,1.83,0,0,1,.34-.1,1.33,1.33,0,0,1,1.16.55A2.81,2.81,0,0,1,68,13.57a3.1,3.1,0,0,1,0,.49,4,4,0,0,1-.14.61,3,3,0,0,1-.23.61,1.17,1.17,0,0,1-.23.35.86.86,0,0,0,.1.23.19.19,0,0,0,.14.07.25.25,0,0,0,.17-.07,1.46,1.46,0,0,0,.22-.18l.21.56.21.56-.38.38c-.12.12-.24.24-.38.36a1.81,1.81,0,0,1-.46.33,1,1,0,0,1-.43.11.59.59,0,0,1-.4-.14.91.91,0,0,1-.26-.38,3.74,3.74,0,0,1-.64.74,3.56,3.56,0,0,1-.83.56,4,4,0,0,1-.49.22,1,1,0,0,1-.4.08l-.2.05a1.08,1.08,0,0,1-.25.05,1.43,1.43,0,0,1-1.1-.59,2,2,0,0,1-.49-1.3,3.37,3.37,0,0,1,.12-.78,4.37,4.37,0,0,0,.12-.56.25.25,0,0,0-.05-.15.19.19,0,0,0-.13,0s-.12.06-.26.18l-.57.53-.08.14a.74.74,0,0,1-.13.22c-.06-.18-.12-.37-.19-.56A5.55,5.55,0,0,0,60.27,15.68Zm5.11-2.23a.32.32,0,0,0-.15.13,1.26,1.26,0,0,0-.2.28c-.1.19-.21.39-.34.61a.89.89,0,0,1-.25.23,1,1,0,0,1-.3.11c-.07,0-.15.09-.22.24a3.38,3.38,0,0,0-.24.66c-.08.25-.13.46-.17.64a2.92,2.92,0,0,0,0,.45.79.79,0,0,0,.15.52.58.58,0,0,0,.45.17,1.49,1.49,0,0,0,.9-.31,3.15,3.15,0,0,0,.77-.94l.32-.44a.49.49,0,0,0,.14-.24,3.85,3.85,0,0,0,.1-.4l.2-.7a5.66,5.66,0,0,0-.19-.58.46.46,0,0,0-.17-.26.63.63,0,0,0-.23-.08Z" transform="translate(-1.67 -1.61)"/><path class="cls-1" d="M80.92,15.67l.42,1.12a1.4,1.4,0,0,1-.65.23,10.37,10.37,0,0,1-1.31.17,13.57,13.57,0,0,1-1.87,1.75,7.22,7.22,0,0,1-1.84,1l-.49.16a1.12,1.12,0,0,1-.37-.08,2.69,2.69,0,0,1-.44-.23,2.08,2.08,0,0,1-.4-.35.56.56,0,0,1-.14-.36,1.06,1.06,0,0,1,.31-.7,3.17,3.17,0,0,1,.9-.65c.8-.42,1.58-.85,2.35-1.28a.36.36,0,0,1,.25.08.27.27,0,0,1,.07.2.65.65,0,0,1-.41.55c-.27.16-.41.26-.41.33s.09.12.13.12.3-.16.61-.48.47-.51.46-.59l0-.28,0,0a3,3,0,0,0,.41-.5.75.75,0,0,0,.13-.36,2.08,2.08,0,0,0-.26-.82,10.73,10.73,0,0,0-.8-1.23,12.75,12.75,0,0,0-.81-1c-.27-.29-.52-.56-.77-.78a3.22,3.22,0,0,1-.26-.29,2.85,2.85,0,0,1-.17-.26c-.07-.17-.14-.3-.18-.41a.92.92,0,0,0-.12-.2l-.15-.18-.22-.24a2,2,0,0,1-.34-.74,5,5,0,0,1-.12-1.19,3.29,3.29,0,0,1,.11-.89,2.72,2.72,0,0,1,.32-.78,1.47,1.47,0,0,0,.07-.17c0-.07,0-.14.07-.22a4.86,4.86,0,0,1,.83-1.24,12.12,12.12,0,0,1,1.53-1.41l.31-.19.4-.32a1.51,1.51,0,0,1,.28-.22,1.59,1.59,0,0,1,.37-.18l.64-.3a7.75,7.75,0,0,1,.89-.46,1.49,1.49,0,0,1,.53-.15.58.58,0,0,1,.52.25,1.17,1.17,0,0,1,.18.7,3.81,3.81,0,0,1-.07.84.82.82,0,0,1-.19.43,26.48,26.48,0,0,1-2,1.73,2.34,2.34,0,0,1-1.08.58.28.28,0,0,1-.23-.1.4.4,0,0,1-.08-.29A1.05,1.05,0,0,1,78.26,5c.32-.26.48-.46.47-.6l-.1-.07-.12,0-.14.1A10.29,10.29,0,0,0,77,6a2.27,2.27,0,0,0-.47,1.2,3,3,0,0,0,.12.82,4.32,4.32,0,0,0,.36.85c.11.21.28.46.49.78s.49.69.82,1.13l1.07,1.41a4.13,4.13,0,0,0,.41.53,5.06,5.06,0,0,1,.36.63,2.28,2.28,0,0,1,.2.61,3.87,3.87,0,0,1,.08.58c0,.22,0,.5,0,.83s0,.3.07.33a.67.67,0,0,0,.25,0,.17.17,0,0,0,.1,0Z" transform="translate(-1.67 -1.61)"/><path class="cls-1" d="M80.91,15.68c.14-.21.32-.46.54-.76s.5-.64.82-1l.08-.26c0-.11.09-.23.16-.39.38-.64.71-1.26,1-1.85a18.08,18.08,0,0,0,.76-1.74,4,4,0,0,0,.21-.52c.08-.2.17-.44.28-.7A2.71,2.71,0,0,1,85.06,8a.43.43,0,0,1,.29-.16.33.33,0,0,1,.31.21,1.52,1.52,0,0,1,.1.65,10,10,0,0,1-.37,1.58c-.24.89-.6,2.14-1.08,3.76-.13.39-.27.94-.43,1.65s-.34,1.58-.54,2.63c0,.15,0,.33-.07.53s-.06.44-.11.71c-.12.52-.21.94-.26,1.25a2.83,2.83,0,0,0-.06.59l0,.1s.08-.1.12-.23a3.13,3.13,0,0,0,.13-.56c0-.22.07-.41.09-.56a1.18,1.18,0,0,0,0-.37c.16-.47.34-1.08.56-1.81s.46-1.6.74-2.57l.39-.86c.14-.34.29-.74.46-1.2a2.17,2.17,0,0,1,.44-.4.61.61,0,0,1,.33-.13,1,1,0,0,1,.56.18,1.79,1.79,0,0,1,.46.54,4,4,0,0,1,.2.43c.09.24.22.55.39,1a2.52,2.52,0,0,0,.28.57.47.47,0,0,0,.29.21l.45,1.12-.28.09c-.16.05-.38.1-.66.16l-.72-.31a1.49,1.49,0,0,1-.64-.59,1.62,1.62,0,0,0-.61-.6,2.09,2.09,0,0,0-.48.72,9.89,9.89,0,0,0-.52,1.39,3.37,3.37,0,0,1-.17.42c-.06.15-.13.32-.2.52s-.1.61-.15.89-.19.56-.3.93-.22.83-.34,1.35a6.21,6.21,0,0,1-.27.81,3.81,3.81,0,0,0-.26.82,2.93,2.93,0,0,1-.09.45q-.07.27-.21.66a4.79,4.79,0,0,1-.44.74c-.14.16-.25.25-.34.25a.5.5,0,0,1-.48-.36,2.56,2.56,0,0,1-.16-1.05c0-.7,0-1.47.11-2.31s.17-1.73.31-2.69c.05-.28.09-.56.14-.85l.15-.86c.06-.34.11-.66.13-.94a5.14,5.14,0,0,0,0-.77A1.25,1.25,0,0,0,82,16c-.16.18-.37.46-.63.82a3.91,3.91,0,0,0-.15-.45Z" transform="translate(-1.67 -1.61)"/><path class="cls-1" d="M88.33,15.68l.06-.08,0-.13a7.46,7.46,0,0,1,1-1.17,6.84,6.84,0,0,0,1-1.18.63.63,0,0,1,.25-.28.48.48,0,0,1,.27-.09.91.91,0,0,1,.63.22,1.07,1.07,0,0,1,.34.64c0,.25.1.5.14.76s.08.51.1.77.11.41.18.74a3.7,3.7,0,0,0,.16.57.4.4,0,0,0,.16.18.68.68,0,0,0,.27.05.91.91,0,0,0,.39-.08,1.35,1.35,0,0,0,.42-.27l.33-.33.35-.32.42,1.12a4.73,4.73,0,0,1-.45.45c-.19.17-.41.36-.68.58a5.56,5.56,0,0,1-.74.54,1,1,0,0,1-.47.18,2,2,0,0,1-1.25-.26,3.68,3.68,0,0,1-.64-1.42,2.67,2.67,0,0,0-.12-.24l-.2-.31a2,2,0,0,0-.22-.42c-.06-.1-.11-.15-.16-.15a.79.79,0,0,0-.45.27,5.89,5.89,0,0,0-.71.78,3.38,3.38,0,0,0-.13-.37c-.05-.15-.11-.32-.16-.52a.52.52,0,0,0-.06-.13A.36.36,0,0,0,88.33,15.68Zm4.44-9.63a.54.54,0,0,1,.39.12.49.49,0,0,1,.12.36c0,.22-.08.42-.11.57s-.13.53-.18.72-.1.32-.12.4a1.65,1.65,0,0,1-.27.47,1.49,1.49,0,0,1-.39.36,3.37,3.37,0,0,1-.41.28.44.44,0,0,1-.23.06l-.35,0-.32,0A.58.58,0,0,1,90.68,9a2.27,2.27,0,0,1-.08-.66A1.75,1.75,0,0,1,91,7.42c.26-.37.49-.56.69-.59s.26-.37.42-.58a.82.82,0,0,1,.28-.15A1.48,1.48,0,0,1,92.77,6.05Z" transform="translate(-1.67 -1.61)"/><path class="cls-1" d="M94.41,15.68l.34-.54A9.28,9.28,0,0,0,96,13.73a5.54,5.54,0,0,0,.72-1.26l-.11-.59a2.45,2.45,0,0,1,.69-.72,1.66,1.66,0,0,1,.89-.41.85.85,0,0,1,.61.24l.48.52a1.77,1.77,0,0,1,.17.13,2.2,2.2,0,0,1,.64,1,5.21,5.21,0,0,1,.21,1.58,4.56,4.56,0,0,1-.33,1.4A4.42,4.42,0,0,0,99.65,17a.13.13,0,0,0,0,.1.15.15,0,0,0,.1,0,.56.56,0,0,0,.33-.14,2.75,2.75,0,0,0,.41-.38,5.54,5.54,0,0,1,.68-.7,1.59,1.59,0,0,0,.29-.23c.06.16.12.34.2.53s.15.38.22.59l-.21.24-.29.3c-.25.2-.56.45-1,.74s-.84.62-1.38,1a1.64,1.64,0,0,1-.49.26,1.21,1.21,0,0,1-.67-.15.56.56,0,0,1-.22-.5,1,1,0,0,1,.05-.31,2.45,2.45,0,0,1,.13-.38c0-.11.09-.22.14-.33a1.85,1.85,0,0,0,.12-.33,12,12,0,0,0,.36-1.43,6.64,6.64,0,0,0,.12-1.18,2.35,2.35,0,0,0-.17-1,.66.66,0,0,0-.53-.39,3.8,3.8,0,0,0-.51.41,5.81,5.81,0,0,0-.56.67,8.18,8.18,0,0,1-.55.72,1.86,1.86,0,0,1-.41.38,1.85,1.85,0,0,1-.31.42,4.22,4.22,0,0,1-.56.5,1.28,1.28,0,0,1-.2.36c-.06-.18-.12-.37-.19-.55Z" transform="translate(-1.67 -1.61)"/><path class="cls-1" d="M101.49,15.68l.06-.08,0-.13a8.26,8.26,0,0,1,1-1.17,6.84,6.84,0,0,0,1-1.18.63.63,0,0,1,.25-.28.48.48,0,0,1,.27-.09.91.91,0,0,1,.63.22,1.07,1.07,0,0,1,.34.64c0,.25.09.5.14.76s.07.51.1.77.11.41.18.74a2.76,2.76,0,0,0,.16.57.4.4,0,0,0,.16.18.68.68,0,0,0,.27.05.94.94,0,0,0,.39-.08,1.21,1.21,0,0,0,.41-.27l.34-.33c.12-.1.23-.21.34-.32L108,16.8a4.73,4.73,0,0,1-.45.45c-.19.17-.41.36-.68.58a6.3,6.3,0,0,1-.74.54,1.08,1.08,0,0,1-.47.18,2,2,0,0,1-1.25-.26,3.68,3.68,0,0,1-.64-1.42,1.47,1.47,0,0,0-.13-.24l-.19-.31a2.56,2.56,0,0,0-.22-.42c-.06-.1-.12-.15-.16-.15a.84.84,0,0,0-.46.27,6.75,6.75,0,0,0-.7.78c0-.1-.08-.23-.13-.37s-.11-.32-.16-.52l-.06-.13A.36.36,0,0,0,101.49,15.68Zm4.44-9.63a.55.55,0,0,1,.39.12.49.49,0,0,1,.12.36c0,.22-.08.42-.11.57s-.13.53-.18.72-.1.32-.13.4a1.43,1.43,0,0,1-.26.47,1.67,1.67,0,0,1-.39.36,3.37,3.37,0,0,1-.41.28.44.44,0,0,1-.23.06l-.35,0-.32,0a.53.53,0,0,1-.22-.33,2.27,2.27,0,0,1-.08-.66,1.75,1.75,0,0,1,.39-.92c.26-.37.49-.56.68-.59l.43-.58a.82.82,0,0,1,.28-.15A1.48,1.48,0,0,1,105.93,6.05Z" transform="translate(-1.67 -1.61)"/><path class="cls-1" d="M107.56,15.68l0-.1.16-.24L108,15a13.7,13.7,0,0,0,1.47-1.93,24.71,24.71,0,0,0,1.42-2.56,2.85,2.85,0,0,0,.19-.36c.07-.15.15-.33.23-.55a.18.18,0,0,0,0-.11.15.15,0,0,0-.1,0,.68.68,0,0,0-.21,0,.79.79,0,0,1-.22,0h-1.89l-.2-.11-.17-.09a.41.41,0,0,1-.2-.13.29.29,0,0,1-.07-.19,3.62,3.62,0,0,1,.15-1.19c.09-.28.24-.42.44-.42a5,5,0,0,1,.56,0l.46.08.3-.07.48,0,.31.06.27-.06.3-.07.35.12c.24,0,.51-.43.79-1.19s.58-1.15.9-1.15a.46.46,0,0,1,.39.18.89.89,0,0,1,.14.54,2.53,2.53,0,0,1-.15.74,3.52,3.52,0,0,0-.16.69.37.37,0,0,0,.06.1.58.58,0,0,0,.11.13.31.31,0,0,1,.09.16A2.33,2.33,0,0,1,114,8,8,8,0,0,1,114,9.12c0,.26-.1.4-.18.41l-.72.17c0,.08,0,.18,0,.3s0,.25-.09.41c-.12.4-.26.92-.4,1.55s-.32,1.37-.5,2.22c-.12.68-.21,1.24-.27,1.66a7.57,7.57,0,0,0-.09.85.61.61,0,0,0,.06.3.17.17,0,0,0,.16.09,1.78,1.78,0,0,0,.46-.35q.39-.35,1.11-1.05l.41,1.12a2.73,2.73,0,0,1-.3.32,4.87,4.87,0,0,1-.45.39,3.3,3.3,0,0,1-.27.3l-.35.39-.37.48c-.13.17-.25.33-.38.48a2.07,2.07,0,0,1-.5.46,1,1,0,0,1-.46.14.79.79,0,0,1-.69-.32,1.66,1.66,0,0,1-.23-1c0-.48,0-.88,0-1.23a4.7,4.7,0,0,1,.14-.84.7.7,0,0,0,.06-.17,1.6,1.6,0,0,1,0-.33c0-.14,0-.3.07-.49s.09-.63.14-.95.16-.4.24-.62a.14.14,0,0,0-.08-.11l-.11.07a3.89,3.89,0,0,1-.41.62,8.87,8.87,0,0,1-.61.68l-1.1,1.21a1.36,1.36,0,0,1-.12.18,3.23,3.23,0,0,0-.19.3c0-.09-.08-.22-.13-.37s-.11-.32-.17-.52a.5.5,0,0,0,0-.13A.39.39,0,0,0,107.56,15.68Z" transform="translate(-1.67 -1.61)"/><path class="cls-1" d="M113.45,15.68l.06-.08a1,1,0,0,1,.19-.37,1.72,1.72,0,0,1,.41-.39l.54-.42a1.06,1.06,0,0,0,.24-.23A.92.92,0,0,0,115,14c.08-.06.17-.15.29-.26l.38-.42a.83.83,0,0,0,.16-.19l.17-.31c.09-.07.19-.17.31-.28s.25-.26.41-.44l.6-.73c.22-.26.47-.54.75-.82l.26-.12a1,1,0,0,1,.24,0,.92.92,0,0,1,.71.26,1.09,1.09,0,0,1,.24.75c0,.09,0,.22,0,.41s-.06.42-.08.71c-.1.82-.17,1.32-.22,1.5s-.19.74-.44,1.68q-.09.24-.18.57l-.21.83s0,.07.1.1a.57.57,0,0,0,.27-.16l.51-.5c.24-.26.44-.46.58-.59a3.21,3.21,0,0,1,.27-.25l.23.61q.1.27.18.51a1.79,1.79,0,0,0-.25.22c-.07.09-.14.17-.21.27s-.32.25-.51.39l-.64.48c-.11.12-.25.27-.43.44l-.61.6-.21.05a1.85,1.85,0,0,1-.28.35,1,1,0,0,1-.24.17l-.34.14-.36.14a.27.27,0,0,1-.17-.16.71.71,0,0,1,0-.31,3.76,3.76,0,0,1-.26-.76,4.65,4.65,0,0,1-.09-.95,1.48,1.48,0,0,1,0-.21c0-.07,0-.14,0-.2a2.21,2.21,0,0,1-.07-.38.81.81,0,0,1,.24-.6.77.77,0,0,1,.55-.24.24.24,0,0,1,.23.19c0,.13.1.19.14.19s.11-.11.16-.33.1-.56.15-1,.08-.7.1-1,0-.49,0-.64a.43.43,0,0,0-.06-.24.23.23,0,0,0-.2-.08c-.09,0-.38.25-.89.74s-1.2,1.21-2.1,2.18l-.12.21a3.23,3.23,0,0,0-.19.3,3.91,3.91,0,0,0-.15-.45Z" transform="translate(-1.67 -1.61)"/><path class="cls-1" d="M127.86,21h-.25a.61.61,0,0,1-.43-.17,1,1,0,0,1-.23-.54,2.37,2.37,0,0,1,0-.41c0-.2,0-.46,0-.8,0-.13,0-.35,0-.64s0-.51,0-.65a1.85,1.85,0,0,1,0-.26c0-.12,0-.29,0-.5s0-.43,0-.71,0-.51-.08-.77c0-.43.11-.87.17-1.32a2.29,2.29,0,0,0,0-.35c0-.17,0-.29,0-.34a1,1,0,0,1,0-.25,1.57,1.57,0,0,0,0-.27.5.5,0,0,0,0-.19.13.13,0,0,0-.12-.07l-.12.05-.14.07a.71.71,0,0,0-.16.05l-.23.08-.1-.07,0-.12.19-.38c.07-.12.13-.25.19-.37a1.23,1.23,0,0,1,.23-.28l.29-.24a.69.69,0,0,0,.2-.39,6.3,6.3,0,0,0,.12-.93c0-.46.06-.84.1-1.13a3.54,3.54,0,0,1,.1-.6c0-.1.06-.23.11-.38a1.31,1.31,0,0,0,0-.23.92.92,0,0,1,0-.22c.05-.38.1-.74.15-1.09a5.05,5.05,0,0,1,.53-1.51,10.07,10.07,0,0,1,1.09-1.59,3.9,3.9,0,0,1,2-1.14l.26.07.35-.15a.38.38,0,0,1,.13,0,1.08,1.08,0,0,1,.21.11,2.38,2.38,0,0,1,.43-.12,1.16,1.16,0,0,1,.28,0,1.91,1.91,0,0,1,1,.2.68.68,0,0,1,.33.62,5.11,5.11,0,0,1,0,.52c0,.2-.05.41-.09.64a2.88,2.88,0,0,1-.17.68c-.06.15-.13.23-.21.25l-.56-.28-.6-.27-.38.17-.39-.06a2.1,2.1,0,0,0-.41,0l-.47.12c-.45.12-.71.29-.78.5a8.27,8.27,0,0,1-.36.88,4.16,4.16,0,0,0-.27,1c-.13.58-.29,1.4-.5,2.47a1.28,1.28,0,0,1-.07.26.79.79,0,0,0-.07.3.46.46,0,0,0,.05.26.19.19,0,0,0,.14.11,3.13,3.13,0,0,1,.43-.19l.65-.23a5.1,5.1,0,0,0,.68-.13,7.1,7.1,0,0,0,.72-.2h.64l.73-.14a1.69,1.69,0,0,1,.93.2.64.64,0,0,1,.3.57s0,.17,0,.37,0,.46-.05.8l-.29.57a3.23,3.23,0,0,1-.48-.09l-1.12-.28a4.07,4.07,0,0,1-.55.12,4.21,4.21,0,0,1-.62,0,3.37,3.37,0,0,0-.58.08,4.55,4.55,0,0,1-.58.08,1,1,0,0,1-.28.18.69.69,0,0,1-.28,0l-.33,0c-.09,0-.18.09-.26.28a4,4,0,0,0-.23.89l-.1.52.07.38-.2,1.46a1.91,1.91,0,0,0,0,.2,1.69,1.69,0,0,1,0,.23c-.09.66-.16,1.29-.19,1.91s-.06,1.25-.06,1.87a1.24,1.24,0,0,1-.08.41A1.86,1.86,0,0,1,127.86,21Z" transform="translate(-1.67 -1.61)"/><path class="cls-1" d="M134.68,15.68a2.79,2.79,0,0,1,.33-.52,4.13,4.13,0,0,1,.51-.54l.06-.48a3.89,3.89,0,0,0,0-.49c0-.11.06-.24.1-.4l.16-.5c.06-.18.15-.4.26-.67a8.86,8.86,0,0,1,.43-.9l.47-.62.48-.68.26-.2.27-.22a1.23,1.23,0,0,1,.29-.09,1.87,1.87,0,0,1,.35,0,1.27,1.27,0,0,1,.43.06.62.62,0,0,1,.27.21,1.38,1.38,0,0,1,.15.3c0,.13.09.28.13.47s0,.34.07.54q0-.08,0,.06c0,.09-.07.23-.12.43l-.09.39a4.42,4.42,0,0,1-.67,1.35,17.73,17.73,0,0,1-1.4,1.76,1.07,1.07,0,0,0-.13.21.66.66,0,0,0-.05.28,1.06,1.06,0,0,0,.08.45.61.61,0,0,0,.22.29,1,1,0,0,0,.28.15,2.94,2.94,0,0,0,.44.13,2.57,2.57,0,0,0,.75-.16,2.65,2.65,0,0,0,.61-.29l.17-.1.23-.18.24.64c.07.18.13.35.17.48a6.79,6.79,0,0,1-1.1,1,1.58,1.58,0,0,1-.9.34,1.15,1.15,0,0,1-.39.18,2,2,0,0,1-.52.06,1.67,1.67,0,0,1-.69-.14,1.39,1.39,0,0,1-.51-.39,1.42,1.42,0,0,1-.21-.36c-.07-.16-.14-.35-.22-.57a2.52,2.52,0,0,0-.18-.39.23.23,0,0,0-.19-.13.3.3,0,0,0-.19.09,1.33,1.33,0,0,0-.24.27,3.91,3.91,0,0,0-.15-.45Zm3.4-4c-.16,0-.37.24-.63.71a2.47,2.47,0,0,0-.39,1c0,.05,0,.08,0,.1a.16.16,0,0,0,.11,0,.21.21,0,0,0,.19-.14l.14-.26a2.85,2.85,0,0,0,.23-.26l.22-.28a1.45,1.45,0,0,0,.19-.34,1,1,0,0,0,.06-.34.45.45,0,0,0,0-.18A.15.15,0,0,0,138.08,11.71Z" transform="translate(-1.67 -1.61)"/><path class="cls-1" d="M140,15.68l.06-.08a1,1,0,0,1,.19-.37,1.72,1.72,0,0,1,.41-.39l.54-.42a.87.87,0,0,0,.24-.23.92.92,0,0,0,.13-.21c.08-.06.17-.15.29-.26l.38-.42a.83.83,0,0,0,.16-.19c.06-.09.11-.2.17-.31a3.56,3.56,0,0,0,.31-.28,4.65,4.65,0,0,0,.41-.44l.6-.73c.22-.26.47-.54.75-.82l.26-.12a1,1,0,0,1,.24,0,1,1,0,0,1,.72.26,1.09,1.09,0,0,1,.24.75c0,.09,0,.22,0,.41s-.05.42-.08.71q-.15,1.23-.21,1.5l-.45,1.68q-.09.24-.18.57l-.21.83s.05.07.1.1a.57.57,0,0,0,.27-.16c.13-.11.3-.28.51-.5s.44-.46.58-.59a3.21,3.21,0,0,1,.27-.25l.23.61q.1.27.18.51l-.25.22c-.07.09-.14.17-.21.27s-.32.25-.51.39l-.64.48c-.11.12-.25.27-.43.44l-.61.6-.2.05a1.85,1.85,0,0,1-.29.35.71.71,0,0,1-.24.17l-.33.14-.37.14a.29.29,0,0,1-.17-.16.71.71,0,0,1,0-.31,3.76,3.76,0,0,1-.25-.76,4,4,0,0,1-.1-.95,1.48,1.48,0,0,1,0-.21,1.5,1.5,0,0,0,0-.2,2.21,2.21,0,0,1-.07-.38.81.81,0,0,1,.24-.6.79.79,0,0,1,.56-.24.24.24,0,0,1,.22.19c0,.13.1.19.15.19s.1-.11.15-.33.1-.56.15-1,.09-.7.1-1,0-.49,0-.64a.43.43,0,0,0-.06-.24.23.23,0,0,0-.19-.08c-.1,0-.39.25-.9.74s-1.2,1.21-2.1,2.18l-.12.21-.19.3a2,2,0,0,0-.15-.45Z" transform="translate(-1.67 -1.61)"/><path class="cls-1" d="M146.67,15.68l0-.1.16-.24.24-.34a12.34,12.34,0,0,0,1.47-1.93A24.71,24.71,0,0,0,150,10.51a2.85,2.85,0,0,0,.19-.36c.07-.15.15-.33.24-.55a.14.14,0,0,0,0-.11.13.13,0,0,0-.1,0,.8.8,0,0,0-.21,0,.73.73,0,0,1-.22,0H148l-.19-.11-.18-.09a.38.38,0,0,1-.19-.13.25.25,0,0,1-.07-.19,3.67,3.67,0,0,1,.14-1.19c.1-.28.24-.42.44-.42a5,5,0,0,1,.56,0l.46.08.3-.07.49,0,.31.06.27-.06.29-.07.35.12c.25,0,.51-.43.79-1.19s.58-1.15.9-1.15a.46.46,0,0,1,.39.18.89.89,0,0,1,.14.54,2.82,2.82,0,0,1-.14.74,3.72,3.72,0,0,0-.17.69l.06.1a.58.58,0,0,0,.11.13.31.31,0,0,1,.09.16,1.28,1.28,0,0,1,0,.29,8.32,8.32,0,0,1,0,1.13c0,.26-.1.4-.19.41l-.72.17c0,.08,0,.18-.05.3s0,.25-.09.41c-.12.4-.25.92-.4,1.55s-.32,1.37-.5,2.22c-.11.68-.2,1.24-.26,1.66a7.57,7.57,0,0,0-.09.85.62.62,0,0,0,.05.3.18.18,0,0,0,.16.09,1.61,1.61,0,0,0,.46-.35q.4-.35,1.11-1.05L153,16.8a2.73,2.73,0,0,1-.3.32c-.13.12-.28.25-.46.39l-.26.3a4.74,4.74,0,0,0-.35.39l-.38.48c-.12.17-.25.33-.38.48a1.9,1.9,0,0,1-.5.46.94.94,0,0,1-.45.14.8.8,0,0,1-.7-.32,1.66,1.66,0,0,1-.23-1c0-.48,0-.88,0-1.23a4.7,4.7,0,0,1,.14-.84c0-.06.05-.12.07-.17a2.48,2.48,0,0,1,0-.33c0-.14,0-.3.07-.49s.09-.63.14-.95l.25-.62s0-.08-.09-.11l-.11.07a3.89,3.89,0,0,1-.41.62,7.17,7.17,0,0,1-.61.68l-1.1,1.21a1.36,1.36,0,0,1-.12.18l-.19.3-.13-.37c-.05-.15-.11-.32-.17-.52a.5.5,0,0,0,0-.13A.36.36,0,0,0,146.67,15.68Z" transform="translate(-1.67 -1.61)"/><path class="cls-1" d="M152.55,15.68l.06-.08,0-.13a7.11,7.11,0,0,1,1-1.17,7.16,7.16,0,0,0,1-1.18.7.7,0,0,1,.25-.28.48.48,0,0,1,.27-.09.91.91,0,0,1,.63.22,1.07,1.07,0,0,1,.34.64c.05.25.1.5.14.76s.08.51.1.77.11.41.18.74a3.7,3.7,0,0,0,.16.57.4.4,0,0,0,.16.18.68.68,0,0,0,.27.05.91.91,0,0,0,.39-.08,1.35,1.35,0,0,0,.42-.27q.15-.16.33-.33l.35-.32.42,1.12a4.73,4.73,0,0,1-.45.45c-.19.17-.41.36-.68.58a5.56,5.56,0,0,1-.74.54,1,1,0,0,1-.47.18,2,2,0,0,1-1.25-.26,3.68,3.68,0,0,1-.64-1.42,1.33,1.33,0,0,0-.12-.24l-.19-.31a2.45,2.45,0,0,0-.23-.42c-.06-.1-.11-.15-.16-.15a.79.79,0,0,0-.45.27,5.94,5.94,0,0,0-.7.78c0-.1-.08-.23-.14-.37s-.11-.32-.16-.52a.52.52,0,0,0-.06-.13A.36.36,0,0,0,152.55,15.68ZM157,6.05a.54.54,0,0,1,.39.12.49.49,0,0,1,.12.36c0,.22-.08.42-.11.57l-.18.72c-.06.19-.1.32-.13.4a1.62,1.62,0,0,1-.25.47,2,2,0,0,1-.4.36,3.37,3.37,0,0,1-.41.28.44.44,0,0,1-.23.06l-.35,0-.32,0A.58.58,0,0,1,154.9,9a2.27,2.27,0,0,1-.08-.66,1.75,1.75,0,0,1,.39-.92c.26-.37.49-.56.69-.59s.26-.37.42-.58a.82.82,0,0,1,.28-.15A1.48,1.48,0,0,1,157,6.05Z" transform="translate(-1.67 -1.61)"/><path class="cls-1" d="M158.62,15.68a3.58,3.58,0,0,1,.2-.33,7.21,7.21,0,0,1,.44-.6,6.28,6.28,0,0,0,.5-.64,2.76,2.76,0,0,0,.28-.53l.3-.71q.18-.42.39-1a2.92,2.92,0,0,1,.45-.39c.29-.23.46-.34.54-.34s.16.08.2.23a2.38,2.38,0,0,1,.07.69c0,.45,0,.83,0,1.14a5.76,5.76,0,0,1-.08.74,1,1,0,0,0,0,.14,1.94,1.94,0,0,0,.05.2c0,.08,0,.17-.05.26a18.85,18.85,0,0,0,.09,2.16c.07.48.15.72.26.72s.33-.21.57-.62a16.28,16.28,0,0,0,.91-1.86c.35-.81.62-1.47.8-2a5.55,5.55,0,0,0,.32-1.17,2.86,2.86,0,0,1,.31-1,.69.69,0,0,1,.59-.35.16.16,0,0,1,.15.07.34.34,0,0,1,.05.2,4.25,4.25,0,0,1-.12,1,4.81,4.81,0,0,1-.34,1,2.81,2.81,0,0,1-.13.75,5.77,5.77,0,0,1-.41.91,4,4,0,0,0-.15.65,8.71,8.71,0,0,1-.49,1.12,8.83,8.83,0,0,1-.58,1.12,1.52,1.52,0,0,1-.25.71,5.25,5.25,0,0,1-.75.93,2.37,2.37,0,0,1-.23.3l-.22.3a.92.92,0,0,1-.26.26.63.63,0,0,1-.33.09.94.94,0,0,1-.87-.5,3,3,0,0,1-.3-1.5c0-.12,0-.23,0-.32s-.07-.22-.11-.38a4,4,0,0,1-.07-.53V16a1.6,1.6,0,0,0,0-.33l.07-.28-.1-.07a2.43,2.43,0,0,0-.4.41l-.9,1.11c-.05-.17-.11-.35-.18-.53S158.72,15.89,158.62,15.68Z" transform="translate(-1.67 -1.61)"/><path class="cls-1" d="M166,15.14l1-.73.13-.16a3.2,3.2,0,0,0,.17-.3.77.77,0,0,1,.19-.27,1.64,1.64,0,0,1,.29-.2,2.21,2.21,0,0,1,.24-.3c.11-.12.24-.27.4-.43l.3-.21a4.26,4.26,0,0,0,.39-.37,12,12,0,0,1,1.7-1.58,2.23,2.23,0,0,1,1.22-.52.55.55,0,0,1,.41.13.52.52,0,0,1,.14.38,1.25,1.25,0,0,1-.08.45.9.9,0,0,1-.25.33l-.58.49a5.52,5.52,0,0,1-.41.54,6.13,6.13,0,0,1-.57.57,2.79,2.79,0,0,0-.19.28l-.2.22a4.9,4.9,0,0,1-.39.37,2.79,2.79,0,0,1-.46.69c-.24.29-.56.63-.95,1a2.74,2.74,0,0,0-.27.39l-.5.8.08.11a1.61,1.61,0,0,0,.49-.29,5.64,5.64,0,0,0,.56-.55l.59-.62.32-.31.15-.09.17-.13a5,5,0,0,1,.91-1,1.35,1.35,0,0,1,.79-.33.37.37,0,0,1,.34.21,1.39,1.39,0,0,1,.14.6c0,.41,0,.8,0,1.17a1.18,1.18,0,0,0,.18.7.6.6,0,0,0,.52.32.27.27,0,0,0,.18-.07,1.25,1.25,0,0,0,.19-.15l.14-.21.15-.2.12-.08a1.06,1.06,0,0,0,.15-.15c.1.25.19.46.25.64s.12.35.16.48c-.17.18-.33.35-.49.54a6,6,0,0,1-.5.51,2.43,2.43,0,0,1-.62.42,1.32,1.32,0,0,1-.59.15A1.26,1.26,0,0,1,171,18a2.33,2.33,0,0,1-.44-1.36.91.91,0,0,0,0-.23.52.52,0,0,0-.11-.24.71.71,0,0,1-.12.13,1.63,1.63,0,0,0-.14.18l-.35.3-.48.44q-.37.45-.63.72c-.17.19-.29.32-.36.41s-.31.27-.49.41-.4.28-.64.43a3.05,3.05,0,0,1-.38.21.62.62,0,0,1-.23.08.93.93,0,0,1-.76-.29,1.34,1.34,0,0,1-.24-.88,1.68,1.68,0,0,1,.12-.63,2.18,2.18,0,0,1,.37-.58c0-.1,0-.19,0-.26a.27.27,0,0,0,0-.12.71.71,0,0,0-.07-.16l-.14-.38-.17-.46.12-.19Z" transform="translate(-1.67 -1.61)"/><path class="cls-1" d="M173.79,15.68a2,2,0,0,0,.19-.3,3.24,3.24,0,0,1,.26-.38l.7-.71a.16.16,0,0,0,.05-.1V14c0-.1,0-.19,0-.26a8.14,8.14,0,0,1,.09-.94,3.79,3.79,0,0,1,.17-.79l-.06-.23c.09-.55.22-1.14.39-1.79s.35-1.35.57-2.1a5.18,5.18,0,0,0,.22-.5c.08-.2.17-.42.26-.68a13.63,13.63,0,0,1,.48-1.33c.2-.46.42-.94.67-1.43a9.27,9.27,0,0,1,.89-1.45c.26-.32.49-.49.69-.49a1.07,1.07,0,0,1,.85.28,1.69,1.69,0,0,1,.23,1,4.54,4.54,0,0,1-.06.6,4.77,4.77,0,0,0-.06.62,2.17,2.17,0,0,1-.12.59,2.59,2.59,0,0,0-.11.69A.76.76,0,0,1,180,6v.17a4.09,4.09,0,0,1-.12.41c-.06.17-.13.36-.23.59s-.11.44-.19.71l-.27.88-.17.3c-.07.11-.14.25-.22.39a2.31,2.31,0,0,1-.1.37c-.05.14-.12.3-.2.49s-.1.2-.17.31-.16.26-.26.44l-.14.31c-.05.12-.1.26-.17.41s-.18.31-.31.52-.27.44-.43.72c-.22.44-.45.87-.68,1.28a3.25,3.25,0,0,0,.41,1.79,1.38,1.38,0,0,0,1.23.6l.31-.08.74-.27.33-.28.43-.42.42,1.12-.56.58-.56.57a2.61,2.61,0,0,1-.67.48,1.51,1.51,0,0,1-.67.17l-.52,0a4.72,4.72,0,0,0-.53,0,1.15,1.15,0,0,1-1-.55,3.82,3.82,0,0,1-.55-1.64.59.59,0,0,0-.06-.2.64.64,0,0,0-.13-.19l-.32.37-.45.5Zm5.07-9.58-.08,0a6.72,6.72,0,0,0-.9,1.24,2.52,2.52,0,0,0-.3,1.14,1,1,0,0,1-.07.29c0,.13-.11.3-.2.52s-.23.53-.35.83-.24.82-.31,1.11a3,3,0,0,0-.11.61l.06.09c.07,0,.15-.08.24-.21a4.83,4.83,0,0,0,.32-.62,3.65,3.65,0,0,1,.24-.51c.11-.19.23-.43.36-.69a7.3,7.3,0,0,0,.54-1.38,9.35,9.35,0,0,0,.41-1.42,2,2,0,0,1,.06-.48Z" transform="translate(-1.67 -1.61)"/><path class="cls-1" d="M37,37.36c-1.39,0-2.46-.76-2.46-2h1.22a1.12,1.12,0,0,0,1.24,1c.8,0,1.25-.43,1.25-1,0-1.68-3.69-.59-3.69-3.15,0-1.22,1-2,2.39-2a2.12,2.12,0,0,1,2.37,1.89H38.08a1.09,1.09,0,0,0-1.17-.92c-.66,0-1.17.3-1.17,1,0,1.57,3.68.59,3.68,3.13A2.16,2.16,0,0,1,37,37.36Z" transform="translate(-1.67 -1.61)"/><path class="cls-1" d="M43.14,37.38a2.67,2.67,0,0,1-2.75-2.85,2.64,2.64,0,0,1,2.75-2.84,2.57,2.57,0,0,1,2.68,2.71,3.52,3.52,0,0,1,0,.56H41.57a1.52,1.52,0,0,0,1.57,1.46,1.33,1.33,0,0,0,1.3-.77h1.23A2.52,2.52,0,0,1,43.14,37.38ZM41.58,34h3.05a1.43,1.43,0,0,0-1.54-1.39A1.5,1.5,0,0,0,41.58,34Z" transform="translate(-1.67 -1.61)"/><path class="cls-1" d="M50,31.69a2.62,2.62,0,0,1,2.59,2.82A2.66,2.66,0,0,1,50,37.38a2.49,2.49,0,0,1-1.92-.89v3.42H46.94V31.78h1.14v.81A2.4,2.4,0,0,1,50,31.69Zm-.25,1a1.87,1.87,0,0,0,0,3.71,1.74,1.74,0,0,0,1.68-1.88A1.69,1.69,0,0,0,49.75,32.68Z" transform="translate(-1.67 -1.61)"/><path class="cls-1" d="M53.9,32.71h-.65v-.93h.65V30.41h1.15v1.37h1.34v.93H55.05v3c0,.41.16.58.64.58h.7v.95h-.9c-1,0-1.59-.41-1.59-1.53Z" transform="translate(-1.67 -1.61)"/><path class="cls-1" d="M59.81,37.38a2.67,2.67,0,0,1-2.75-2.85,2.64,2.64,0,0,1,2.75-2.84,2.57,2.57,0,0,1,2.68,2.71,3.52,3.52,0,0,1,0,.56H58.24a1.52,1.52,0,0,0,1.57,1.46,1.33,1.33,0,0,0,1.3-.77h1.23A2.52,2.52,0,0,1,59.81,37.38ZM58.25,34h3a1.43,1.43,0,0,0-1.54-1.39A1.5,1.5,0,0,0,58.25,34Z" transform="translate(-1.67 -1.61)"/><path class="cls-1" d="M71.42,34.21c0-1-.55-1.53-1.38-1.53a1.34,1.34,0,0,0-1.39,1.53v3.08H67.52V34.21c0-1-.55-1.53-1.38-1.53a1.34,1.34,0,0,0-1.39,1.53v3.08H63.61V31.78h1.14v.63a2.1,2.1,0,0,1,1.63-.72,2.13,2.13,0,0,1,2,1.09A2.25,2.25,0,0,1,72.54,34v3.25H71.42Z" transform="translate(-1.67 -1.61)"/><path class="cls-1" d="M77.06,31.69a2.61,2.61,0,0,1,2.59,2.82,2.66,2.66,0,0,1-2.59,2.87,2.34,2.34,0,0,1-1.92-.89v.8H74v-7.4h1.14V32.6A2.36,2.36,0,0,1,77.06,31.69Zm-.25,1a1.87,1.87,0,0,0,0,3.71,1.74,1.74,0,0,0,1.68-1.88A1.69,1.69,0,0,0,76.81,32.68Z" transform="translate(-1.67 -1.61)"/><path class="cls-1" d="M83.15,37.38a2.67,2.67,0,0,1-2.75-2.85,2.64,2.64,0,0,1,2.75-2.84,2.57,2.57,0,0,1,2.68,2.71,3.52,3.52,0,0,1,0,.56H81.58a1.52,1.52,0,0,0,1.57,1.46,1.33,1.33,0,0,0,1.3-.77h1.23A2.52,2.52,0,0,1,83.15,37.38ZM81.59,34h3a1.43,1.43,0,0,0-1.54-1.39A1.5,1.5,0,0,0,81.59,34Z" transform="translate(-1.67 -1.61)"/><path class="cls-1" d="M88.09,37.29H87V31.78h1.14v.8a1.79,1.79,0,0,1,1.65-.89v1.18h-.29c-.84,0-1.36.35-1.36,1.52Z" transform="translate(-1.67 -1.61)"/><path class="cls-1" d="M94,31h-.93V30h2.08v7.29H94Z" transform="translate(-1.67 -1.61)"/><path class="cls-1" d="M97.52,31h-.93V30h2.08v7.29H97.52Z" transform="translate(-1.67 -1.61)"/><path class="cls-1" d="M106.27,31.89a.67.67,0,0,0-.7-.78.68.68,0,0,0-.74.67c0,.38.21.69.7,1.22l1.84,1.83.71-1.17h1.23l-.9,1.54-.25.41,1.69,1.68h-1.49l-.86-.86a3.22,3.22,0,0,1-2.41,1c-1.5,0-2.5-.83-2.5-2.13a2.31,2.31,0,0,1,1.63-2.18,1.91,1.91,0,0,1-.53-1.33c0-.91.74-1.6,1.93-1.6a1.59,1.59,0,0,1,1.79,1.71Zm.48,3.79-1.84-1.85c-.81.32-1.18.8-1.18,1.42a1.24,1.24,0,0,0,1.36,1.2A2.19,2.19,0,0,0,106.75,35.68Z" transform="translate(-1.67 -1.61)"/><path class="cls-1" d="M113.83,31h-.93V30H115v7.29h-1.15Z" transform="translate(-1.67 -1.61)"/><path class="cls-1" d="M116.46,36.36c1.72-1.51,3.53-2.83,3.53-4.26,0-.76-.33-1.28-1.18-1.28s-1.23.56-1.26,1.38h-1.1a2.21,2.21,0,0,1,2.35-2.35,2.1,2.1,0,0,1,2.32,2.2c0,1.77-1.8,3.12-3,4.19h3.17v.95h-4.86Z" transform="translate(-1.67 -1.61)"/><path class="cls-1" d="M122.48,35.92h1.24l-1.21,2.76h-.74Z" transform="translate(-1.67 -1.61)"/><path class="cls-1" d="M127.08,36.36c1.72-1.51,3.53-2.83,3.53-4.26,0-.76-.33-1.28-1.18-1.28s-1.23.56-1.26,1.38h-1.1a2.21,2.21,0,0,1,2.35-2.35,2.1,2.1,0,0,1,2.32,2.2c0,1.77-1.8,3.12-3,4.19h3.17v.95h-4.86Z" transform="translate(-1.67 -1.61)"/><path class="cls-1" d="M135.54,29.87c2,0,2.6,1.6,2.6,3.68s-.56,3.72-2.6,3.72-2.6-1.6-2.6-3.72S133.5,29.87,135.54,29.87Zm0,1c-1.33,0-1.48,1.28-1.48,2.64s.15,2.68,1.48,2.68S137,35,137,33.55,136.87,30.91,135.54,30.91Z" transform="translate(-1.67 -1.61)"/><path class="cls-1" d="M139.26,36.36c1.72-1.51,3.53-2.83,3.53-4.26,0-.76-.33-1.28-1.18-1.28s-1.23.56-1.26,1.38h-1.1a2.21,2.21,0,0,1,2.35-2.35,2.1,2.1,0,0,1,2.32,2.2c0,1.77-1.8,3.12-3,4.19h3.17v.95h-4.86Z" transform="translate(-1.67 -1.61)"/><path class="cls-1" d="M145.9,31H145V30h2.08v7.29H145.9Z" transform="translate(-1.67 -1.61)"/></svg>